HIERARCHY
ROOT Hips
{
  OFFSET 90.7885 88.945 -76.2838
  CHANNELS 6 Xposition Yposition Zposition Zrotation Xrotation Yrotation
  JOINT LeftUpLeg
  {
    OFFSET 8.64259 1.95398 -2.38835
    CHANNELS 3 Zrotation Xrotation Yrotation
    JOINT LeftLeg
    {
      OFFSET 43.7702 0 0
      CHANNELS 3 Zrotation Xrotation Yrotation
      JOINT LeftFoot
      {
        OFFSET 40.6238 0 0
        CHANNELS 3 Zrotation Xrotation Yrotation
        JOINT LeftToeBase
        {
          OFFSET 12.7242 0 0
          CHANNELS 3 Zrotation Xrotation Yrotation
          End Site
          {
            OFFSET 0 0 0
          }
        }
      }
    }
  }
  JOINT RightUpLeg
  {
    OFFSET -8.2249 1.95398 -2.59336
    CHANNELS 3 Zrotation Xrotation Yrotation
    JOINT RightLeg
    {
      OFFSET 43.5653 0 0
      CHANNELS 3 Zrotation Xrotation Yrotation
      JOINT RightFoot
      {
        OFFSET 40.6238 0 0
        CHANNELS 3 Zrotation Xrotation Yrotation
        JOINT RightToeBase
        {
          OFFSET 12.7242 0 0
          CHANNELS 3 Zrotation Xrotation Yrotation
          End Site
          {
            OFFSET 0 0 0
          }
        }
      }
    }
  }
  JOINT Spine
  {
    OFFSET 0.165834 0.87714 6.61349
    CHANNELS 3 Zrotation Xrotation Yrotation
    JOINT Spine1
    {
      OFFSET 7.38963 1.71661e-005 0
      CHANNELS 3 Zrotation Xrotation Yrotation
      JOINT Spine2
      {
        OFFSET 11.9445 1.14441e-005 0
        CHANNELS 3 Zrotation Xrotation Yrotation
        JOINT Spine3
        {
          OFFSET 14.7254 4.19617e-005 0
          CHANNELS 3 Zrotation Xrotation Yrotation
          JOINT Spine4
          {
            OFFSET 10.9679 0 0
            CHANNELS 3 Zrotation Xrotation Yrotation
            JOINT RightShoulder
            {
              OFFSET 2.46616 -1.6653 3.69651
              CHANNELS 3 Zrotation Xrotation Yrotation
              JOINT RightArm
              {
                OFFSET 13.0012 0 0
                CHANNELS 3 Zrotation Xrotation Yrotation
                JOINT RightForeArm
                {
                  OFFSET 28.7848 1.52588e-005 0
                  CHANNELS 3 Zrotation Xrotation Yrotation
                  JOINT RightHand
                  {
                    OFFSET 26.5688 1.52588e-005 0
                    CHANNELS 3 Zrotation Xrotation Yrotation
                    End Site
                    {
                      OFFSET 0 0 0
                    }
                  }
                }
              }
            }
            JOINT LeftShoulder
            {
              OFFSET 2.38034 -1.29275 -3.7523
              CHANNELS 3 Zrotation Xrotation Yrotation
              JOINT LeftArm
              {
                OFFSET 16.3182 6.10352e-005 0
                CHANNELS 3 Zrotation Xrotation Yrotation
                JOINT LeftForeArm
                {
                  OFFSET 27.0901 0 0
                  CHANNELS 3 Zrotation Xrotation Yrotation
                  JOINT LeftHand
                  {
                    OFFSET 24.5451 1.52588e-005 0
                    CHANNELS 3 Zrotation Xrotation Yrotation
                    End Site
                    {
                      OFFSET 0 0 0
                    }
                  }
                }
              }
            }
            JOINT Neck
            {
              OFFSET 5.0226 -0.0266342 0
              CHANNELS 3 Zrotation Xrotation Yrotation
              JOINT Head
              {
                OFFSET 6.69363 2.86102e-005 0
                CHANNELS 3 Zrotation Xrotation Yrotation
                End Site
                {
                  OFFSET 0 0 0
                }
              }
            }
          }
        }
      }
    }
  }
}
MOTION
Frames:	15
Frame Time:	0.0416667
8.24012 99.9063 -3.90137 -102.451 -49.3246 -100.036 -176.736 -4.2217 91.7997 -12.5181 6.99426 0.808163 69.6535 4.25507 -5.29167 19.8742 -2.22264 4.23449 169.223 -6.12138 85.1987 -10.2712 -12.1814 -1.79006 65.9009 -3.4847 1.11296 28.8614 -1.73328 4.07873 0.184654 7.89742 -90.0738 11.0792 0.333443 -0.179146 -0.591659 0.325209 -0.193653 -23.1271 0.371839 -0.0706475 -3.11449 0.371858 -0.0706507 87.6394 -31.4344 -110.774 39.6199 -13.7062 -3.83432 3.52719 -21.223 -15.4505 -25.4776 -0.46941 -7.863 -89.7232 -54.5811 80.063 -16.55 23.602 -15.4765 2.16305 6.17303 -10.821 1.70379 -0.0702477 -3.80034 2.80281 2.40273 -1.17356 -6.70297 2.53442 0.745418 
8.23654 99.9074 -3.87164 -102.54 -49.2476 -100.111 -176.837 -4.4385 91.7447 -12.2957 5.85236 0.850843 70.0738 4.1488 -8.86109 19.9532 -7.25447 10.5725 169.346 -6.10984 85.2226 -10.4344 -11.9081 -1.94092 66.325 -3.62409 1.22236 28.4687 -1.62156 3.87068 0.224503 7.94111 -90.1163 10.9922 0.393003 -0.268836 -0.678755 0.380796 -0.285883 -23.2143 0.455636 -0.138293 -3.20166 0.455632 -0.138299 88.3387 -30.6707 -109.75 39.9385 -14.1681 -4.38751 3.4212 -21.3623 -16.7429 -28.2263 -0.955804 -5.435 -89.921 -55.04 79.8711 -16.3504 23.126 -16.187 2.38576 7.12135 -10.5316 0.952289 -0.0892022 -4.31704 3.26294 2.17459 -0.32601 -6.65915 2.18849 0.313491 
8.25014 99.9101 -3.87445 -102.524 -49.2109 -100.082 -176.734 -4.5487 91.8917 -12.0494 5.76586 0.730037 70.832 4.14518 -12.2231 21.5217 -13.0603 18.338 169.383 -6.25656 85.2673 -10.1527 -12.125 -1.98748 66.2124 -3.60456 0.988923 28.6533 -1.52558 3.61826 0.221347 7.92746 -90.0972 11.02 0.395659 -0.231226 -0.650911 0.385103 -0.248418 -23.1865 0.446858 -0.101623 -3.17386 0.446857 -0.101625 88.1368 -31.142 -109.942 39.5253 -14.5186 -4.29674 3.52987 -21.8356 -16.9739 -28.5559 -1.04803 -5.1479 -89.6349 -54.5252 80.1781 -16.678 23.4285 -16.1574 2.25622 7.03336 -10.4425 0.863835 -0.0963228 -4.58468 3.47611 2.21534 -0.699794 -6.88797 2.28598 0.446765 
8.26382 99.9253 -3.87389 -102.646 -49.1154 -100.151 -176.729 -4.65646 91.8947 -12.1371 5.89681 0.747419 70.8071 4.07217 -12.7233 21.975 -14.5354 20.3594 169.409 -6.36654 85.268 -10.1036 -12.0196 -2.03751 66.2268 -3.60736 1.21683 28.4354 -1.5938 3.81043 0.239906 7.92184 -90.1024 11.0186 0.430173 -0.245041 -0.65226 0.418959 -0.26373 -23.1879 0.483925 -0.104419 -3.1753 0.483909 -0.104426 88.3014 -31.1444 -109.624 39.5158 -14.7676 -4.42473 3.68955 -21.3079 -16.6953 -27.4658 -0.798223 -6.17741 -89.6013 -54.5462 80.2299 -16.5934 23.597 -16.2571 2.13107 6.92912 -10.2871 1.27597 -0.100231 -4.49167 3.5072 2.22295 -0.563516 -6.69144 2.28108 0.189752 
8.2628 99.9533 -3.86217 -102.787 -48.9871 -100.174 -176.656 -4.73283 91.9089 -12.3323 5.7671 0.713935 70.4655 4.24081 -8.76234 19.9403 -7.39068 10.778 169.402 -6.60526 85.3031 -9.84034 -12.1954 -2.03179 66.0552 -3.56537 1.15447 28.4913 -1.54902 3.6972 0.246674 7.91836 -90.1101 11.0153 0.440019 -0.261584 -0.655613 0.428084 -0.280716 -23.1913 0.498313 -0.117249 -3.17865 0.498301 -0.117249 88.2647 -31.2033 -109.67 39.529 -14.7913 -4.31072 3.40942 -21.3047 -16.949 -26.7551 -0.760112 -6.35899 -89.557 -54.5506 80.2938 -16.8424 23.2933 -16.0898 2.34561 7.30856 -10.3538 1.40688 -0.100732 -4.79232 3.75847 2.11019 -0.532401 -7.02256 2.17446 -0.0233569 
8.28623 99.9491 -3.86404 -102.857 -49.013 -100.243 -176.656 -4.66914 91.8925 -12.577 5.89291 0.719611 70.963 4.40424 -8.52724 18.3994 -7.27794 10.61 169.391 -6.73871 85.2763 -9.65805 -12.0609 -2.05301 66.1058 -3.61498 1.3247 28.3513 -1.61445 3.8711 0.238674 7.91646 -90.1231 11.0032 0.41805 -0.285503 -0.667751 0.405112 -0.303637 -23.2034 0.484536 -0.146655 -3.19071 0.484541 -0.146669 88.3165 -31.0285 -109.643 39.6582 -14.7398 -4.21691 3.29244 -21.4474 -17.2195 -26.6103 -0.796809 -6.21811 -89.6449 -54.5875 80.1758 -16.6554 23.6445 -16.1946 2.10499 6.77344 -10.3744 1.14588 -0.0996752 -4.76418 3.77669 2.05838 -0.352666 -6.86457 2.09748 -0.145953 
8.28524 99.9719 -3.87277 -102.933 -49.0423 -100.219 -176.552 -4.61662 92.0123 -12.7483 5.94226 0.668163 70.3679 4.28446 -7.24348 19.476 -4.54993 7.25657 169.43 -6.95549 85.3692 -9.33373 -11.9449 -2.04954 65.8987 -3.54179 1.39482 28.3959 -1.60987 3.85392 0.218766 7.91665 -90.1427 11.0059 0.369338 -0.31986 -0.665059 0.354922 -0.335816 -23.2005 0.448411 -0.194064 -3.18785 0.448403 -0.194077 88.2253 -30.9402 -109.856 39.7368 -14.5688 -4.12452 3.31603 -21.554 -17.0564 -26.7896 -0.815943 -6.14871 -89.7045 -54.7779 80.1273 -16.518 23.6 -16.0601 2.14761 6.71639 -10.4952 1.10414 -0.097951 -4.66648 3.6387 2.09434 -0.228517 -6.70494 2.11313 -0.190897 
8.30262 99.9446 -3.86642 -102.881 -48.8948 -100.185 -176.594 -4.82676 91.9979 -12.3632 5.81558 0.687423 72.2953 4.73855 -9.93842 15.267 -10.3208 13.9118 169.498 -6.83983 85.3765 -9.53127 -12.1011 -2.13846 66.0293 -3.56482 1.32933 28.4478 -1.56673 3.7452 0.227305 7.92011 -90.1314 11.0305 0.39157 -0.299077 -0.64038 0.378063 -0.316036 -23.1759 0.463351 -0.167568 -3.16324 0.463389 -0.167555 88.1178 -31.1666 -109.969 39.622 -14.4636 -3.96928 3.52478 -21.6166 -17.1683 -26.6279 -0.825864 -6.10979 -89.6774 -54.4575 80.1045 -16.8945 23.7991 -15.883 1.98586 5.59589 -10.5687 1.32667 -0.0962281 -4.4563 3.55323 2.06444 -0.521621 -6.80577 2.13054 -0.110072 
8.28937 99.9623 -3.82639 -103.043 -48.7798 -100.322 -176.629 -4.93338 91.9324 -12.3981 5.59935 0.717171 70.5747 4.23719 -9.07403 19.7263 -7.70354 11.1708 169.428 -7.0354 85.2888 -9.40242 -12.226 -2.14782 66.0495 -3.57865 1.42475 28.3407 -1.58193 3.79645 0.227552 7.93042 -90.1308 11.0135 0.392421 -0.297904 -0.657464 0.378951 -0.314891 -23.193 0.463814 -0.166193 -3.18035 0.463819 -0.166186 88.2022 -31.039 -109.859 39.8508 -14.4486 -3.97621 3.46338 -21.2922 -17.1371 -26.4005 -0.785377 -6.23076 -89.5739 -54.2802 80.2182 -17.1924 23.5628 -15.9337 2.13794 6.26729 -10.4205 1.27783 -0.0927866 -4.44104 3.44625 2.04366 -0.483103 -6.8209 2.10218 -0.0846733 
8.30013 99.9863 -3.77939 -103.012 -48.6729 -100.268 -176.599 -4.94227 91.8903 -12.6523 5.50524 0.686027 71.204 4.59179 -6.9914 16.8053 -4.11438 6.76503 169.369 -7.12595 85.2521 -9.21006 -12.523 -2.11898 65.8807 -3.5277 1.24108 28.3633 -1.60269 3.84176 0.232301 7.93183 -90.1401 11.0081 0.397631 -0.316885 -0.662787 0.38328 -0.334085 -23.1983 0.474464 -0.182735 -3.18565 0.474479 -0.18273 88.2717 -30.9971 -109.743 39.8484 -14.6518 -4.08127 3.5712 -21.0785 -16.751 -26.7826 -0.72321 -6.47639 -89.5801 -54.3505 80.2227 -17.1294 23.6588 -15.9983 2.02293 5.75193 -10.4053 1.53586 -0.0905636 -4.37764 3.47691 1.9785 -0.325787 -6.83191 2.02179 -0.331894 
8.27533 99.9948 -3.74095 -102.987 -48.5631 -100.27 -176.642 -4.95861 91.7665 -12.7551 5.29393 0.70266 70.6373 4.55847 -4.60391 17.2841 0.257044 1.52248 169.427 -7.14972 85.2504 -9.1941 -12.4549 -2.20642 65.8698 -3.5243 1.39659 28.3653 -1.59051 3.8129 0.238963 7.9325 -90.1421 11.0028 0.409926 -0.322023 -0.668174 0.395349 -0.33975 -23.2037 0.487762 -0.183932 -3.19106 0.48775 -0.18393 88.2975 -31.0856 -109.656 39.7263 -14.7309 -4.11958 3.92424 -21.4156 -16.5585 -27.0207 -0.742741 -6.45798 -89.6442 -54.3894 80.1385 -16.9809 23.5668 -16.1582 2.06497 6.4284 -10.2332 1.65183 -0.105512 -4.80627 3.48815 2.02441 -0.418707 -6.8452 2.06828 0.00999646 
8.23972 100.038 -3.71853 -102.878 -48.4786 -100.118 -176.626 -4.77253 91.7962 -13.4048 4.9435 0.699311 70.3808 4.27933 -5.2969 17.3257 -1.4886 3.586 169.396 -7.61859 85.3006 -8.12475 -12.6885 -2.17302 65.346 -3.42231 1.26722 28.472 -1.56315 3.73305 0.244607 7.93803 -90.159 10.9987 0.41329 -0.355879 -0.672264 0.397227 -0.373727 -23.2078 0.501132 -0.215209 -3.19513 0.501139 -0.215213 88.3602 -30.8931 -109.615 39.8527 -14.7857 -4.14049 3.65019 -21.5903 -16.6483 -26.9824 -0.826588 -6.09804 -89.5778 -54.4182 80.2389 -16.9455 23.6943 -16.2145 2.04688 6.0746 -10.5212 2.03427 -0.0993896 -4.60017 3.60667 2.07311 -0.234731 -6.79963 2.09138 -0.138914 
8.23039 100.046 -3.67894 -102.774 -48.5256 -100.149 -176.736 -4.81423 91.6053 -13.3137 5.85205 0.80693 70.2636 4.35205 -4.50862 17.5199 -1.9953 4.18144 169.322 -7.36004 85.1825 -8.54817 -12.783 -2.15452 65.7188 -3.53212 1.13608 28.0771 -1.54257 3.74305 0.244491 7.91896 -90.1496 11.0365 0.417348 -0.337713 -0.634413 0.402087 -0.35575 -23.17 0.499553 -0.196665 -3.15732 0.499555 -0.196667 88.2671 -30.8194 -109.826 40.0309 -14.7192 -3.80404 3.08337 -21.5648 -16.9512 -26.769 -0.830403 -6.08662 -89.5625 -54.4372 80.2646 -17.1447 23.2762 -16.1802 2.31976 7.35758 -10.241 1.57554 -0.0943493 -4.48528 3.43078 2.03744 -0.253579 -6.6314 2.05935 -0.147097 
8.26962 100.011 -3.65976 -102.557 -48.5876 -100.088 -176.883 -4.72139 91.4417 -13.0138 5.16726 0.82958 70.4566 4.39893 -5.05299 16.6465 -1.68639 3.89833 169.271 -7.00448 85.0588 -8.8912 -12.6854 -2.14577 65.8337 -3.5487 1.36143 28.3459 -1.5326 3.68036 0.250168 7.90857 -90.1517 11.0573 0.427678 -0.34235 -0.61359 0.412178 -0.361466 -23.1492 0.510979 -0.197706 -3.13651 0.510981 -0.197712 88.3628 -30.6759 -109.701 40.0294 -14.8656 -3.7237 3.18217 -21.1804 -17.1152 -26.8615 -0.837429 -5.94594 -89.7827 -54.5872 79.9795 -17.0583 23.2234 -16.0755 2.3487 7.32327 -10.3246 1.50725 -0.0885433 -4.43783 3.4726 2.02626 -0.0406641 -6.64582 2.01097 -0.116357 
8.16651 99.9684 -3.61925 -102.532 -48.5886 -100.04 -176.803 -4.88718 91.5788 -12.526 5.21567 0.787885 70.6939 4.57676 -4.91521 17.2822 -0.506139 2.41149 169.301 -6.81235 85.1095 -9.4015 -12.6659 -2.11622 66.0913 -3.60656 1.23569 28.4137 -1.6505 3.94642 0.248936 7.91265 -90.1494 11.0492 0.426186 -0.335909 -0.621727 0.41089 -0.356771 -23.1573 0.508196 -0.191793 -3.14468 0.508169 -0.191819 88.2065 -30.7176 -109.987 40.0547 -14.501 -3.7635 3.33867 -21.5406 -16.9554 -26.9546 -0.869934 -5.87966 -89.7322 -54.5898 80.052 -17.0992 23.1048 -15.9949 2.41701 7.29227 -10.3392 1.31281 -0.0884782 -4.29516 3.51889 2.05436 -0.286863 -6.68235 2.07243 0.0795391 
